<?xml version="1.0" encoding="utf-8"?>
<!-- Generator: Adobe Illustrator 21.0.0, SVG Export Plug-In . SVG Version: 6.00 Build 0)  -->
<svg version="1.1" id="Layer_1" xmlns="http://www.w3.org/2000/svg" xmlns:xlink="http://www.w3.org/1999/xlink" x="0px" y="0px"
	 viewBox="0 0 59 59" style="enable-background:new 0 0 59 59;" xml:space="preserve">
<style type="text/css">
	.st0{fill:#FFFFFF;}
	.st1{fill:#F48020;}
	.st2{fill:#2AA9E0;}
	.st3{fill:#36609F;}
</style>
<g id="XMLID_9_">
	<circle id="XMLID_13_" class="st0" cx="29.5" cy="29.5" r="26.2"/>
	<path id="XMLID_10_" class="st3" d="M29.5,0C13.2,0,0,13.2,0,29.5C0,45.8,13.2,59,29.5,59C45.8,59,59,45.8,59,29.5
		C59,13.2,45.8,0,29.5,0z M35.8,29.5h-4.1c0,6.6,0,14.7,0,14.7h-6.1c0,0,0-8.1,0-14.7h-2.9v-5.2h2.9v-3.4c0-2.4,1.1-6.2,6.2-6.2
		l4.5,0v5.1c0,0-2.8,0-3.3,0c-0.5,0-1.3,0.3-1.3,1.4v3.1h4.7L35.8,29.5z"/>
</g>
</svg>
